<svg t="1643475558384" class="icon" viewBox="0 0 1024 1024" version="1.1" xmlns="http://www.w3.org/2000/svg" p-id="688"
     width="200" height="200">
    <path d="M790.95399999 82.539c18.88-17.846 18.88-46.715-0.10499999-64.48-18.985-17.84000001-49.622-17.84-68.607-1e-8l-489.84800001 460.27500001c-9.568 8.87-14.149 20.597-14.14899999 32.273 0 0.99 0.523 1.82 0.575 2.758 0.20999999 4.887 0.99 9.782 2.966 14.356 0.674 1.513 1.976 2.604 2.807 4.00500001 2.18599999 3.849 4.371 7.80599999 7.801 11.13399999L722.241 1003.21c18.985 17.631 49.51699999 17.631 68.607-0.053 18.985-17.78799999 18.985-46.71 0-64.5L335.392 510.61 790.954 82.54z m0 0"
          p-id="689"></path>
</svg>
