<svg t="1643176964161" class="icon" viewBox="0 0 1024 1024" version="1.1" xmlns="http://www.w3.org/2000/svg" p-id="1302"
     width="200" height="200">
    <path d="M762.503311 141.113925c-14.285355-9.653871-33.714869-5.90243-43.363623 8.393157-9.658987 14.295588-5.907547 33.709753 8.388041 43.367717 106.359376 71.861678 169.863712 191.280488 169.863712 319.443449 0 212.412784-172.811858 385.220548-385.220548 385.220548S126.956484 724.732056 126.956484 512.318248c0-128.168078 63.49922-247.586888 169.858596-319.443449 14.295588-9.658987 18.057261-29.073152 8.398274-43.363623-9.648754-14.295588-29.073152-18.052145-43.363623-8.398274C138.267087 224.602408 64.488757 363.373984 64.488757 512.318248c0 246.854201 200.827935 447.687252 447.682136 447.687252S959.859167 759.173472 959.859167 512.318248C959.859167 363.373984 886.075721 224.607524 762.503311 141.113925z"
          p-id="1303"></path>
    <path d="M400.698055 64.636113c-17.248849 0-31.233352 13.984503-31.233352 31.233352l0 30.470989c0 17.248849 13.985526 31.233352 31.233352 31.233352 17.248849 0 31.233352-13.985526 31.233352-31.233352L431.931407 95.869465C431.931407 78.621639 417.946904 64.636113 400.698055 64.636113z"
          p-id="1304"></path>
    <path d="M623.649869 64.636113c-17.248849 0-31.233352 13.984503-31.233352 31.233352l0 30.470989c0 17.248849 13.985526 31.233352 31.233352 31.233352 17.248849 0 31.233352-13.985526 31.233352-31.233352L654.883221 95.869465C654.883221 78.621639 640.897695 64.636113 623.649869 64.636113z"
          p-id="1305"></path>
    <path d="M425.695379 227.656977c11.209296 18.047028 41.974997 48.588625 86.157265 48.588625 43.958164 0 75.100442-30.3134 86.573751-48.223305 9.302877-14.528901 5.068436-33.846876-9.455349-43.149752-14.544251-9.29776-33.846876-5.063319-43.149752 9.455349-0.121773 0.198521-13.379729 19.449981-33.968649 19.449981-20.008706 0-32.443923-18.127869-33.276894-19.373233-9.165754-14.427594-28.285207-18.799158-42.829458-9.760295C421.089477 193.749726 416.59 213.006302 425.695379 227.656977z"
          p-id="1306"></path>
    <path d="M356.00311 591.05859c-17.248849 0-31.233352 13.984503-31.233352 31.233352s13.984503 31.233352 31.233352 31.233352L480.93754 653.525294l0 98.250698c0 17.248849 13.984503 31.238468 31.233352 31.238468 17.248849 0 31.233352-13.989619 31.233352-31.238468l0-98.250698 124.93443 0c17.248849 0 31.238468-13.984503 31.238468-31.233352s-13.989619-31.233352-31.238468-31.233352L543.405267 591.05859l0-83.289961 124.93443 0c17.248849 0 31.238468-13.985526 31.238468-31.233352 0-17.248849-13.989619-31.233352-31.238468-31.233352l-80.761372 0 68.041676-68.038606c12.20088-12.20088 12.20088-31.976272 0.005117-44.171012-12.195763-12.20088-31.976272-12.195763-44.171012-0.005117l-99.280144 99.276051-99.280144-99.276051c-12.190647-12.190647-31.971156-12.195763-44.171012 0.005117-12.195763 12.195763-12.195763 31.971156 0.005117 44.171012l68.041676 68.038606-80.766488 0c-17.248849 0-31.233352 13.984503-31.233352 31.233352 0 17.248849 13.984503 31.233352 31.233352 31.233352L480.93754 507.768629l0 83.289961L356.00311 591.05859z"
          p-id="1307"></path>
</svg>
